<svg width="273" height="38" viewBox="0 0 273 38" fill="none" xmlns="http://www.w3.org/2000/svg">
<path d="M0.292 37V1.36H14.332C18.616 1.36 21.748 2.224 23.728 3.952C25.708 5.68 26.698 8.074 26.698 11.134C26.698 13.006 26.158 14.68 25.078 16.156C23.998 17.596 22.414 18.514 20.326 18.91V18.964C22.63 19.324 24.412 20.278 25.672 21.826C26.968 23.338 27.616 25.102 27.616 27.118C27.616 30.178 26.5 32.59 24.268 34.354C22.036 36.118 18.796 37 14.548 37H0.292ZM5.962 32.194H14.818C17.086 32.194 18.778 31.726 19.894 30.79C21.046 29.854 21.622 28.54 21.622 26.848C21.622 25.156 21.046 23.842 19.894 22.906C18.778 21.97 17.086 21.502 14.818 21.502H5.962V32.194ZM5.962 16.696H13.9C18.436 16.696 20.704 14.95 20.704 11.458C20.704 7.966 18.436 6.22 13.9 6.22H5.962V16.696Z" fill="#00FFC2"/>
<path d="M37.3959 37V1.36H63.2079V6.328H43.1739V16.588H58.8339V21.448H43.1739V32.032H63.9639V37H37.3959ZM78.854 32.032H98.51V37H73.076V1.36H78.854V32.032ZM130.268 1.36L117.038 37H110.288L97.0583 1.36H103.214L111.53 25.066L113.69 32.14L115.85 25.12L124.166 1.36H130.268ZM138.108 37V1.36H163.92V6.328H143.886V16.588H159.546V21.448H143.886V32.032H164.676V37H138.108ZM200.302 1.36V6.328H188.098V37H182.32V6.328H170.116V1.36H200.302ZM219.403 0.819999C222.607 0.819999 225.379 1.432 227.719 2.656C230.059 3.844 232.039 5.608 233.659 7.948L229.771 11.674C228.403 9.586 226.855 8.092 225.127 7.192C223.435 6.256 221.419 5.788 219.079 5.788C217.351 5.788 215.929 6.022 214.813 6.49C213.697 6.958 212.869 7.588 212.329 8.38C211.825 9.136 211.573 10 211.573 10.972C211.573 12.088 211.951 13.06 212.707 13.888C213.499 14.716 214.957 15.364 217.081 15.832L224.317 17.452C227.773 18.208 230.221 19.36 231.661 20.908C233.101 22.456 233.821 24.418 233.821 26.794C233.821 28.99 233.227 30.898 232.039 32.518C230.851 34.138 229.195 35.38 227.071 36.244C224.983 37.108 222.517 37.54 219.673 37.54C217.153 37.54 214.885 37.216 212.869 36.568C210.853 35.92 209.089 35.038 207.577 33.922C206.065 32.806 204.823 31.528 203.851 30.088L207.847 26.092C208.603 27.352 209.557 28.486 210.709 29.494C211.861 30.466 213.193 31.222 214.705 31.762C216.253 32.302 217.963 32.572 219.835 32.572C221.491 32.572 222.913 32.374 224.101 31.978C225.325 31.582 226.243 31.006 226.855 30.25C227.503 29.458 227.827 28.522 227.827 27.442C227.827 26.398 227.467 25.48 226.747 24.688C226.063 23.896 224.767 23.284 222.859 22.852L215.029 21.07C212.869 20.602 211.087 19.936 209.683 19.072C208.279 18.208 207.235 17.164 206.551 15.94C205.867 14.68 205.525 13.276 205.525 11.728C205.525 9.712 206.065 7.894 207.145 6.274C208.261 4.618 209.863 3.304 211.951 2.332C214.039 1.324 216.523 0.819999 219.403 0.819999ZM272.473 37H266.371L262.969 27.658H248.011L244.609 37H238.669L252.115 1.36H259.027L272.473 37ZM249.631 22.96H261.349L255.517 6.328L249.631 22.96Z" fill="white"/>
</svg>
