<svg width="222" height="69" viewBox="0 0 222 69" fill="none" xmlns="http://www.w3.org/2000/svg">
<path d="M197.619 27.8203C191.466 21.0324 207.054 14.7651 214.438 25.4466L218.13 21.8861C213.617 15.1607 205.003 14.5409 200.491 15.5563C188.184 18.3256 189.591 27.3245 192.697 30.9851C193.733 32.2069 196.118 33.5486 198.44 34.15C204.388 35.6908 212.387 35.3993 212.387 40.4798C212.387 45.5603 199.67 48.7877 192.697 39.293L189.005 42.8535C189.825 45.2272 197.209 50.3077 205.003 50.3077C216.078 50.3077 218.54 44.3735 218.54 40.8754C218.54 28.6115 202.952 32.1095 197.619 27.8203Z" fill="white" stroke="white" stroke-width="0.2"/>
<path d="M201.311 15.934L188.184 48.0167H193.517L196.799 39.6141H211.976L215.258 48.0167H221.001L207.874 15.934H201.311Z" stroke="#1BFFFF"/>
<path d="M188.183 16.6984H158.648V20.698H170.861V48.7812H176.153V20.698H188.183V16.6984Z" fill="white" stroke="white"/>
<path d="M151.674 16.6984H146.341V48.7812H151.674V16.6984Z" fill="white" stroke="white"/>
<path d="M113.116 16.6984H107.784L120.5 48.7812H127.064L139.78 16.6984H134.447L123.782 45.3437L113.116 16.6984Z" fill="white" stroke="white"/>
<path d="M91.3737 16.6984H86.4512V48.7812H111.064V44.9618H91.3737V16.6984Z" fill="white" stroke="white"/>
<path d="M55.2749 16.6984H80.8696V20.8997H60.7693V30.4482H76.3573V34.6495H60.7693V44.9618H81.2798V48.7812H55.2749V16.6984Z" fill="white" stroke="white"/>
<path d="M25.7366 48.7875V16.7047H39.6837C54.0411 16.3228 52.8105 33.5038 43.7859 32.358C56.0922 34.2677 52.8105 48.7875 39.6837 48.7875H25.7366Z" stroke="#1BD6FF" stroke-width="2"/>
<path d="M30.6567 30.8376V20.5253H38.861C46.655 20.5253 47.8856 30.8376 38.861 30.8376H30.6567Z" stroke="#1BD6FF" stroke-width="2"/>
<path d="M30.6567 44.9671V34.6548H39.6814C47.8856 34.6548 48.2958 44.9671 39.6814 44.9671H30.6567Z" stroke="#1BD6FF" stroke-width="2"/>
<path d="M60.2982 37.0915C60.2982 36.6655 60.3852 36.2845 60.5592 35.9485C60.7332 35.6185 61.0032 35.3575 61.3692 35.1655C61.7352 34.9795 62.2032 34.8865 62.7732 34.8865C63.3672 34.8865 63.8502 34.9855 64.2222 35.1835C64.5942 35.3815 64.8672 35.6485 65.0412 35.9845C65.2152 36.3265 65.3022 36.7135 65.3022 37.1455C65.3022 37.3915 65.2752 37.6285 65.2212 37.8565C65.1732 38.0845 65.1132 38.2705 65.0412 38.4145L64.3842 38.1715C64.4382 38.0275 64.4892 37.8595 64.5372 37.6675C64.5852 37.4755 64.6092 37.2955 64.6092 37.1275C64.6092 36.1795 64.0002 35.7055 62.7822 35.7055C62.2002 35.7055 61.7532 35.8195 61.4412 36.0475C61.1352 36.2815 60.9822 36.6265 60.9822 37.0825C60.9822 37.3465 61.0092 37.5775 61.0632 37.7755C61.1172 37.9795 61.1832 38.1655 61.2612 38.3335H60.5592C60.4752 38.1715 60.4122 37.9915 60.3702 37.7935C60.3222 37.6015 60.2982 37.3675 60.2982 37.0915Z" fill="white"/>
<path d="M61.5635 44.1125C60.7769 43.978 60.2021 43.6727 59.8391 43.1968C59.4752 42.7267 59.3513 42.1516 59.4676 41.4715C59.5394 41.0516 59.6982 40.6922 59.9441 40.3933C60.1949 40.1014 60.5198 39.8922 60.9188 39.7656C61.3238 39.6401 61.7895 39.6223 62.3158 39.7123C63.1024 39.8468 63.6747 40.1486 64.0328 40.6177C64.3909 41.0867 64.5118 41.6613 64.3955 42.3414C64.3216 42.7732 64.1593 43.135 63.9086 43.4269C63.6627 43.7257 63.3407 43.9355 62.9427 44.0561C62.5496 44.1837 62.0898 44.2025 61.5635 44.1125ZM62.1778 40.5196C61.6159 40.4235 61.1507 40.4566 60.7821 40.6188C60.4184 40.7879 60.1951 41.115 60.1122 41.5999C60.0303 42.079 60.1327 42.4587 60.4196 42.739C60.7123 43.0204 61.1397 43.2091 61.7015 43.3052C62.2633 43.4013 62.7232 43.3642 63.081 43.1941C63.4387 43.024 63.6591 42.6964 63.742 42.2114C63.8249 41.7265 63.7254 41.3473 63.4435 41.0739C63.1615 40.8004 62.7396 40.6157 62.1778 40.5196Z" fill="white"/>
<path d="M62.3726 47.7061C62.169 48.2192 61.9043 48.5854 61.5785 48.8047C61.256 49.0317 60.9052 49.07 60.5259 48.9196C60.2526 48.8112 60.065 48.6496 59.963 48.4348C59.8666 48.2223 59.8341 47.9706 59.8656 47.6797L59.8322 47.6664C59.7112 47.825 59.5762 47.9618 59.4272 48.077C59.2782 48.1922 59.1135 48.2656 58.9331 48.2973C58.7505 48.3346 58.5449 48.3079 58.3162 48.2171C57.9425 48.0689 57.6894 47.7877 57.5568 47.3736C57.4275 46.9673 57.4934 46.4351 57.7545 45.777C57.8829 45.4535 58.0269 45.1718 58.1867 44.9318C58.3409 44.6896 58.4969 44.4997 58.6547 44.3623L59.3156 44.6245C59.1511 44.7787 58.9818 44.9697 58.8075 45.1975C58.631 45.4308 58.4819 45.7009 58.3602 46.0076C58.2274 46.3422 58.1714 46.646 58.1923 46.9189C58.2164 47.1996 58.368 47.3953 58.6468 47.5059C59.1487 47.7051 59.569 47.378 59.9075 46.5247L60.1465 45.9224L60.7488 46.1614L60.5563 46.6466C60.4036 47.0314 60.3321 47.358 60.3418 47.6265C60.3548 47.9028 60.4868 48.0907 60.7378 48.1903C60.9497 48.2744 61.1441 48.2482 61.3209 48.1118C61.4954 47.981 61.648 47.751 61.7785 47.422C61.8759 47.1766 61.9371 46.9491 61.9621 46.7396C61.9905 46.5378 62.0016 46.3066 61.9953 46.0459L62.6838 46.0189C62.7042 46.5693 62.6005 47.1317 62.3726 47.7061Z" fill="white"/>
<path d="M58.3607 54.2616L54.8202 52.0812L54.4521 52.679L52.4596 51.452L52.8608 50.8006L54.2862 51.6784L56.0465 48.8199L54.6211 47.9421L55.0175 47.2984L57.01 48.5254L56.807 48.8549C57.0753 49.5064 57.465 50.1093 57.9763 50.6636C58.4894 51.2263 59.0612 51.7052 59.6916 52.1005L58.3607 54.2616ZM58.7947 52.3726C58.4599 52.1382 58.1327 51.8628 57.8132 51.5462C57.4989 51.2329 57.2156 50.9034 56.9633 50.5578C56.7079 50.2173 56.5127 49.8821 56.3776 49.5523L55.2214 51.4299L58.2331 53.2845L58.7947 52.3726Z" fill="white"/>
<path d="M55.0543 57.5337C54.6508 57.9614 54.2584 58.1893 53.8772 58.2174C53.496 58.2454 53.1003 58.0659 52.6901 57.6789L50.3007 55.4245L50.696 55.0056L51.2985 55.3637L51.3232 55.3375C51.2753 55.0036 51.2858 54.7083 51.3548 54.4516C51.4196 54.1993 51.592 53.9248 51.872 53.628C52.1726 53.3094 52.5046 53.1236 52.8681 53.0706C53.2359 53.0217 53.5988 53.1661 53.9566 53.5037C54.3058 53.8331 54.4445 54.2238 54.3727 54.6758C54.3053 55.132 54.0107 55.6541 53.4887 56.2423L52.9463 56.8565L53.1558 57.0541C53.4482 57.33 53.7108 57.4582 53.9437 57.4387C54.1766 57.4192 54.4021 57.2938 54.6204 57.0625C54.7933 56.8792 54.9296 56.6779 55.0294 56.4585C55.1335 56.2433 55.2185 56.0307 55.2846 55.8208L55.8834 56.0517C55.8222 56.2827 55.7212 56.5296 55.5803 56.7927C55.4437 57.0598 55.2684 57.3068 55.0543 57.5337ZM53.0215 55.9375C53.4158 55.4846 53.6321 55.1155 53.6705 54.83C53.7048 54.5488 53.6106 54.3033 53.388 54.0933C53.1917 53.908 52.9921 53.831 52.7892 53.8624C52.5823 53.8981 52.3903 54.0098 52.2132 54.1975C51.9332 54.4942 51.7813 54.817 51.7575 55.1657C51.7381 55.5186 51.8986 55.8556 52.239 56.1767L52.5532 56.4732L53.0215 55.9375Z" fill="white"/>
<path d="M50.7601 60.7718C50.4289 61.0202 50.0917 61.1606 49.7485 61.193C49.4005 61.229 49.0651 61.1618 48.7423 60.9914C48.4183 60.8294 48.1249 60.5732 47.8621 60.2228L47.5759 59.8412L50.2183 57.8594C49.8811 57.4298 49.5205 57.179 49.1365 57.107C48.7513 57.0434 48.3667 57.1556 47.9827 57.4436C47.7379 57.6272 47.5381 57.8108 47.3833 57.9944C47.2273 58.1864 47.0809 58.4012 46.9441 58.6388L46.5283 58.0844C46.6603 57.8504 46.8079 57.6422 46.9711 57.4598C47.1307 57.2726 47.3425 57.08 47.6065 56.882C47.9713 56.6084 48.3511 56.4398 48.7459 56.3762C49.1359 56.3162 49.5199 56.3732 49.8979 56.5472C50.2747 56.7296 50.6233 57.0344 50.9437 57.4616C51.2605 57.884 51.4627 58.2986 51.5503 58.7054C51.6331 59.1158 51.6085 59.498 51.4765 59.852C51.3397 60.2096 51.1009 60.5162 50.7601 60.7718ZM50.3785 60.248C50.6809 60.0212 50.8471 59.7428 50.8771 59.4128C50.9059 59.0912 50.8075 58.745 50.5819 58.3742L48.6163 59.8484C48.8659 60.1712 49.1407 60.3776 49.4407 60.4676C49.7443 60.5624 50.0569 60.4892 50.3785 60.248Z" fill="white"/>
<path d="M42.9934 64.6242L40.8052 60.325L41.4388 60.0025L42.835 62.7456C42.8922 62.8579 42.9494 62.9769 43.0066 63.1026C43.0585 63.2311 43.1091 63.3568 43.1583 63.4799L43.1823 63.4677L42.8264 59.2963L43.42 58.9941L46.543 61.7571L46.5671 61.7448C46.4286 61.5124 46.2954 61.2705 46.1675 61.0192L44.7835 58.3001L45.4171 57.9776L47.6053 62.2768L46.6669 62.7544L43.5518 59.9874L43.9318 64.1465L42.9934 64.6242Z" fill="white"/>
<path d="M33.1398 60.7763L33.9347 60.6778L34.4472 64.8132L35.8584 64.6382C35.8111 63.6223 35.8176 62.7963 35.8778 62.16C35.9387 61.5298 36.0649 61.0607 36.2565 60.7528C36.4481 60.4449 36.7166 60.2695 37.0619 60.2267C37.1393 60.2171 37.2175 60.2135 37.2964 60.2158C37.3686 60.2129 37.43 60.2204 37.4805 60.2383L37.5536 60.8278C37.5164 60.8203 37.4766 60.8162 37.4342 60.8154C37.3918 60.8146 37.3497 60.8168 37.308 60.822C36.9865 60.8618 36.7729 61.2359 36.6672 61.9443C36.5556 62.6534 36.5392 63.7407 36.6181 65.2061L33.7331 65.5637L33.1398 60.7763Z" fill="white"/>
<path d="M31.6511 65.1308L30.8081 65.0591L30.0005 62.2355C29.9312 61.9887 29.87 61.7517 29.8171 61.5244C29.7637 61.3031 29.7274 61.0923 29.7083 60.8919L29.6724 60.8889C29.6239 61.0353 29.5505 61.2247 29.4525 61.4573C29.3539 61.6958 29.2524 61.934 29.1478 62.172L27.9385 64.815L27.0865 64.7426L29.6233 59.4485C29.8294 59.0084 30.0783 58.6653 30.3703 58.4191C30.6562 58.1725 31.0323 58.069 31.4986 58.1086C31.6421 58.1208 31.7669 58.1405 31.873 58.1676C31.9796 58.1887 32.071 58.2115 32.1472 58.236L32.0938 58.8638C32.029 58.8462 31.9523 58.8277 31.8637 58.8081C31.769 58.788 31.6709 58.7736 31.5693 58.765C31.2942 58.7416 31.0664 58.8005 30.8858 58.9417C30.6992 59.0824 30.5472 59.2772 30.4296 59.5261L30.1244 60.1415L31.6511 65.1308Z" fill="white"/>
<path d="M25.4651 62.1505C25.6054 61.6166 25.3767 61.2712 24.779 61.114C24.4889 61.0378 24.2134 61.0119 23.9526 61.0364C23.6903 61.0667 23.4145 61.1245 23.1254 61.2098L22.5991 63.2118L21.8331 63.0104L23.0595 58.3449L23.8255 58.5463L23.2787 60.6266C23.584 60.527 23.8773 60.4614 24.1586 60.4298C24.4325 60.4026 24.7465 60.4355 25.1005 60.5285C25.5763 60.6536 25.9149 60.876 26.1162 61.1957C26.3118 61.5138 26.3546 61.8818 26.2448 62.2996L25.7849 64.0492L25.0189 63.8478L25.4651 62.1505Z" fill="white"/>
<path d="M13.9309 58.655L16.1032 54.3477L21.9453 57.2941L19.773 61.6013L19.0658 61.2447L20.9382 57.5321L19.0819 56.5959L17.2096 60.3085L16.5024 59.9518L18.3748 56.2393L16.5104 55.299L14.6381 59.0116L13.9309 58.655Z" fill="white"/>
<path d="M11.4931 55.416C11.1879 55.1363 10.9877 54.8308 10.8926 54.4994C10.793 54.164 10.7972 53.822 10.9051 53.4733C11.0046 53.125 11.2023 52.7894 11.4982 52.4665L11.8205 52.1148L14.2556 54.3463C14.6157 53.9357 14.7957 53.535 14.7956 53.1443C14.7871 52.754 14.6058 52.3967 14.252 52.0724C14.0264 51.8656 13.8091 51.7031 13.6001 51.5849C13.3826 51.4669 13.1445 51.3627 12.8857 51.272L13.3539 50.7611C13.6082 50.8477 13.8401 50.9544 14.0495 51.0811C14.2629 51.2035 14.4912 51.3761 14.7345 51.5991C15.0707 51.9071 15.3065 52.2493 15.4418 52.6256C15.5727 52.9979 15.5875 53.3858 15.4862 53.7894C15.3764 54.1934 15.1412 54.5922 14.7804 54.9859C14.4237 55.3752 14.0535 55.6504 13.6698 55.8115C13.2817 55.9686 12.9016 56.0149 12.5293 55.9505C12.1526 55.882 11.8072 55.7038 11.4931 55.416ZM11.9376 54.9443C12.2162 55.1997 12.5205 55.3117 12.8504 55.2803C13.1718 55.2493 13.4939 55.0888 13.8167 54.7986L12.0053 53.1387C11.7341 53.4435 11.5819 53.7517 11.5488 54.0631C11.5116 54.379 11.6412 54.6727 11.9376 54.9443Z" fill="white"/>
<path d="M8.23268 51.2005C7.97947 50.8729 7.83417 50.5378 7.79677 50.1951C7.7557 49.8477 7.818 49.5113 7.98367 49.1861C8.14093 48.8598 8.39283 48.5626 8.73936 48.2948L9.11674 48.003L11.1369 50.6162C11.5615 50.2728 11.807 49.9086 11.8734 49.5236C11.9314 49.1375 11.8136 48.7546 11.52 48.3748C11.3329 48.1327 11.1464 47.9356 10.9605 47.7835C10.7663 47.6303 10.5494 47.4871 10.3098 47.3538L10.8581 46.9299C11.094 47.0585 11.3043 47.203 11.4891 47.3636C11.6786 47.5204 11.8742 47.7294 12.0761 47.9905C12.355 48.3512 12.5291 48.7285 12.5984 49.1224C12.6641 49.5115 12.6127 49.8962 12.4443 50.2767C12.2674 50.6562 11.9677 51.0092 11.5452 51.3358C11.1275 51.6587 10.7159 51.8669 10.3104 51.9604C9.90123 52.0492 9.51872 52.0302 9.16283 51.9034C8.80327 51.7718 8.49322 51.5375 8.23268 51.2005ZM8.75086 50.8113C8.98204 51.1103 9.26284 51.2724 9.59324 51.2976C9.91523 51.3217 10.26 51.2183 10.6274 50.9873L9.12472 49.0434C8.80559 49.2977 8.60322 49.5755 8.5176 49.8768C8.42724 50.1817 8.50499 50.4932 8.75086 50.8113Z" fill="white"/>
<path d="M9.25804 41.5239C9.41663 41.9192 9.47772 42.3052 9.44131 42.6819C9.40266 43.0529 9.24923 43.3957 8.98101 43.7101C8.71056 44.019 8.31082 44.2795 7.78179 44.4917C7.23048 44.7129 6.74534 44.8008 6.32637 44.7555C5.9074 44.7102 5.55462 44.564 5.26805 44.317C4.97924 44.0643 4.75442 43.7375 4.5936 43.3366C4.50203 43.1082 4.43886 42.8782 4.4041 42.6465C4.36377 42.417 4.35022 42.2221 4.36344 42.0616L5.06367 42.0426C5.06716 42.1963 5.08237 42.3712 5.1093 42.5673C5.13622 42.7634 5.18095 42.9394 5.2435 43.0953C5.59641 43.9752 6.33809 44.1884 7.46855 43.7349C8.00871 43.5183 8.38115 43.2461 8.58585 42.9183C8.78274 42.5872 8.79631 42.2101 8.62656 41.7868C8.52828 41.5418 8.41722 41.3375 8.2934 41.1738C8.16734 41.0046 8.03684 40.8565 7.9019 40.7296L8.55345 40.4683C8.69172 40.5874 8.8172 40.731 8.92989 40.8991C9.04591 41.0594 9.1553 41.2677 9.25804 41.5239Z" fill="white"/>
<path d="M5.49027 35.4206C6.27114 35.2561 6.91792 35.3284 7.4306 35.6374C7.94204 35.9405 8.26886 36.4296 8.41105 37.1048C8.49884 37.5217 8.48342 37.9143 8.36479 38.2826C8.23904 38.6463 8.01395 38.9605 7.6895 39.225C7.35918 39.4908 6.93275 39.6787 6.41022 39.7888C5.62934 39.9532 4.98612 39.8833 4.48055 39.5789C3.97498 39.2746 3.6511 38.7848 3.5089 38.1096C3.41864 37.681 3.43638 37.2849 3.56212 36.9211C3.68076 36.5528 3.90292 36.2393 4.2286 35.9806C4.54718 35.7173 4.96773 35.5306 5.49027 35.4206ZM6.24143 38.9873C6.7992 38.8699 7.2196 38.6679 7.50264 38.3814C7.77857 38.0903 7.86584 37.704 7.76445 37.2226C7.66429 36.747 7.42926 36.4317 7.05936 36.2766C6.68359 36.1227 6.21682 36.1045 5.65905 36.222C5.10129 36.3395 4.68737 36.5431 4.41731 36.833C4.14726 37.1229 4.06292 37.5085 4.16431 37.99C4.26571 38.4714 4.4978 38.7874 4.86059 38.9378C5.22339 39.0883 5.68367 39.1048 6.24143 38.9873Z" fill="white"/>
<path d="M3.41095 32.3574C3.41095 31.8054 3.52195 31.3674 3.74395 31.0434C3.95995 30.7134 4.27195 30.5484 4.67995 30.5484C4.97395 30.5484 5.20795 30.6294 5.38195 30.7914C5.54995 30.9534 5.67295 31.1754 5.75095 31.4574H5.78695C5.84095 31.2654 5.91595 31.0884 6.01195 30.9264C6.10795 30.7644 6.23395 30.6354 6.38995 30.5394C6.54595 30.4374 6.74695 30.3864 6.99295 30.3864C7.39495 30.3864 7.73395 30.5544 8.00995 30.8904C8.27995 31.2204 8.41495 31.7394 8.41495 32.4474C8.41495 32.7954 8.38495 33.1104 8.32495 33.3924C8.27095 33.6744 8.19595 33.9084 8.09995 34.0944H7.38895C7.48495 33.8904 7.57195 33.6504 7.64995 33.3744C7.72795 33.0924 7.76695 32.7864 7.76695 32.4564C7.76695 32.0964 7.70695 31.7934 7.58695 31.5474C7.46095 31.2954 7.24795 31.1694 6.94795 31.1694C6.40795 31.1694 6.13795 31.6284 6.13795 32.5464V33.1944H5.48995V32.6724C5.48995 32.2584 5.43595 31.9284 5.32795 31.6824C5.21395 31.4304 5.02195 31.3044 4.75195 31.3044C4.52395 31.3044 4.35295 31.4004 4.23895 31.5924C4.12495 31.7784 4.06795 32.0484 4.06795 32.4024C4.06795 32.6664 4.09495 32.9004 4.14895 33.1044C4.19695 33.3024 4.27195 33.5214 4.37395 33.7614L3.74395 34.0404C3.52195 33.5364 3.41095 32.9754 3.41095 32.3574Z" fill="white"/>
<path d="M4.70931 24.7711L8.80512 25.4876L8.92608 24.7961L11.2311 25.1993L11.0993 25.9529L9.4503 25.6644L8.87186 28.9712L10.5208 29.2596L10.3906 30.0043L8.08556 29.6011L8.15224 29.2199C7.6621 28.7139 7.07704 28.2979 6.39705 27.9718C5.71218 27.6388 5.00383 27.4053 4.27199 27.2712L4.70931 24.7711ZM5.00466 26.6867C5.40242 26.7806 5.80824 26.9156 6.22212 27.0915C6.63008 27.2664 7.01514 27.4678 7.37731 27.6956C7.7405 27.9175 8.04585 28.1567 8.29336 28.4132L8.6733 26.2411L5.18921 25.6317L5.00466 26.6867Z" fill="white"/>
<path d="M6.59137 20.49C6.81027 19.9443 7.09193 19.5886 7.43637 19.4229C7.7808 19.2572 8.21475 19.2793 8.73822 19.4893L11.7871 20.7122L11.5727 21.2468L10.8809 21.1342L10.8675 21.1676C11.0343 21.4607 11.1327 21.7394 11.1625 22.0035C11.1946 22.262 11.1347 22.5806 10.9828 22.9593C10.8197 23.3658 10.5788 23.6603 10.26 23.8427C9.93556 24.0229 9.54505 24.0214 9.08841 23.8382C8.64291 23.6595 8.37079 23.3468 8.27205 22.8999C8.16774 22.4508 8.25075 21.857 8.52108 21.1185L8.80091 20.3484L8.53361 20.2412C8.16051 20.0915 7.86917 20.0684 7.65961 20.1718C7.45005 20.2752 7.28607 20.4745 7.16769 20.7696C7.07388 21.0035 7.02073 21.2408 7.00825 21.4815C6.9902 21.7199 6.98887 21.9488 7.00426 22.1683L6.36249 22.1727C6.33486 21.9354 6.33846 21.6686 6.37328 21.3722C6.40253 21.0736 6.47523 20.7796 6.59137 20.49ZM9.06748 21.231C8.86639 21.7969 8.80026 22.2196 8.86907 22.4993C8.94012 22.7735 9.11765 22.9675 9.40165 23.0814C9.65225 23.182 9.86617 23.1805 10.0434 23.077C10.2229 22.968 10.3607 22.7938 10.4567 22.5543C10.6086 22.1756 10.6318 21.8197 10.5262 21.4865C10.4151 21.151 10.1424 20.8961 9.70805 20.7219L9.3071 20.5611L9.06748 21.231Z" fill="white"/>
<path d="M9.43231 15.861C9.65069 15.5093 9.91388 15.256 10.2219 15.1012C10.5331 14.9413 10.87 14.8821 11.2326 14.9236C11.5933 14.9569 11.9597 15.0891 12.3318 15.3201L12.7371 15.5717L10.9948 18.3778C11.465 18.6556 11.892 18.7584 12.2759 18.686C12.6579 18.6054 12.9755 18.3612 13.2287 17.9534C13.3902 17.6934 13.5096 17.4498 13.5872 17.2225C13.6628 16.987 13.7212 16.7337 13.7624 16.4626L14.3511 16.8282C14.3131 17.0941 14.2512 17.3417 14.1654 17.5709C14.0847 17.8033 13.9573 18.0597 13.7832 18.34C13.5427 18.7274 13.25 19.0224 12.9053 19.2251C12.5637 19.4226 12.1852 19.5089 11.7698 19.4841C11.3525 19.451 10.917 19.2936 10.4633 19.0119C10.0148 18.7334 9.67582 18.4205 9.44647 18.0733C9.22029 17.721 9.10441 17.356 9.09884 16.9782C9.09644 16.5953 9.2076 16.2229 9.43231 15.861ZM9.97808 16.2105C9.77868 16.5316 9.72493 16.8514 9.81682 17.1697C9.90678 17.4798 10.1242 17.7667 10.469 18.0302L11.7651 15.9429C11.4153 15.7327 11.0843 15.6402 10.7721 15.6653C10.4548 15.6872 10.1901 15.869 9.97808 16.2105Z" fill="white"/>
<path d="M15.2378 9.4582L18.8413 12.6653L18.3686 13.1964L16.0694 11.1501C15.9752 11.0663 15.8786 10.9763 15.7795 10.8801C15.6844 10.7794 15.5915 10.6807 15.5009 10.584L15.483 10.6041L17.3335 14.3595L16.8907 14.857L12.9759 13.4211L12.958 13.4412C13.1716 13.6073 13.3838 13.7841 13.5945 13.9715L15.8736 15.9999L15.4009 16.531L11.7973 13.3239L12.4974 12.5373L16.4062 13.98L14.5377 10.2448L15.2378 9.4582Z" fill="white"/>
<path d="M25.751 9.42159L25.0482 9.80589L23.049 6.14981L21.8013 6.83205C22.2194 7.75915 22.5175 8.52955 22.6959 9.14325C22.8713 9.75168 22.9266 10.2343 22.8619 10.5911C22.7971 10.9479 22.6121 11.2098 22.3067 11.3768C22.2383 11.4142 22.167 11.4464 22.0928 11.4733C22.0268 11.5025 21.9669 11.5182 21.9133 11.5201L21.6283 10.999C21.6656 10.9922 21.7042 10.9814 21.7439 10.9665C21.7836 10.9516 21.8219 10.9341 21.8588 10.914C22.143 10.7585 22.2039 10.332 22.0413 9.63452C21.884 8.93413 21.4989 7.91721 20.886 6.58378L23.4365 5.18906L25.751 9.42159Z" fill="white"/>
<path d="M25.4906 4.82948L26.301 4.58663L28.0891 6.91642C28.2442 7.12049 28.3881 7.31851 28.5208 7.5105C28.6517 7.69674 28.7629 7.87953 28.8542 8.05886L28.8887 8.04853C28.8801 7.89451 28.8787 7.69135 28.8846 7.43906C28.8887 7.18102 28.8956 6.92213 28.9055 6.66237L29.0598 3.75991L29.8788 3.51448L29.4633 9.37022C29.4332 9.85525 29.3276 10.2658 29.1465 10.602C28.9711 10.9364 28.6593 11.1708 28.211 11.3051C28.073 11.3465 27.9498 11.374 27.8411 11.3878C27.7342 11.4073 27.6409 11.4196 27.561 11.4247L27.3801 10.8213C27.4468 10.8138 27.525 10.8029 27.6146 10.7886C27.71 10.7725 27.8066 10.7498 27.9043 10.7206C28.1687 10.6413 28.3589 10.5029 28.4751 10.3052C28.597 10.1059 28.6669 9.86881 28.6848 9.59411L28.7427 8.90967L25.4906 4.82948Z" fill="white"/>
<path d="M32.2599 5.33047C32.3257 5.87853 32.6654 6.11574 33.279 6.04208C33.5769 6.00632 33.8426 5.9291 34.0761 5.81042C34.3089 5.68579 34.5441 5.53065 34.7817 5.34501L34.5349 3.28977L35.3213 3.19537L35.8963 7.98498L35.1099 8.07938L34.8535 5.94371C34.6062 6.14865 34.3575 6.31749 34.1076 6.45023C33.8629 6.5763 33.5588 6.66114 33.1954 6.70477C32.7069 6.76341 32.3103 6.6811 32.0055 6.45783C31.7067 6.23385 31.5315 5.9074 31.48 5.47848L31.2644 3.68238L32.0508 3.58798L32.2599 5.33047Z" fill="white"/>
<path d="M44.3458 4.30045L43.9185 9.10548L37.4012 8.52588L37.8286 3.72084L38.6174 3.791L38.2491 7.93266L40.3199 8.11682L40.6883 3.97517L41.4772 4.04533L41.1088 8.18698L43.1886 8.37194L43.5569 4.23029L44.3458 4.30045Z" fill="white"/>
<path d="M47.8643 6.42206C48.2508 6.5704 48.5491 6.78127 48.7591 7.05466C48.9746 7.33021 49.0961 7.64997 49.1235 8.01396C49.1587 8.37449 49.0978 8.75922 48.9408 9.16813L48.7699 9.61346L45.6862 8.42993C45.5018 8.94397 45.4812 9.38273 45.6245 9.7462C45.7755 10.1062 46.0751 10.3722 46.5232 10.5442C46.8089 10.6539 47.0706 10.7254 47.3085 10.7588C47.554 10.7888 47.8138 10.7986 48.0877 10.788L47.8394 11.435C47.5711 11.4477 47.3162 11.4334 47.075 11.3922C46.8316 11.3567 46.5558 11.2798 46.2477 11.1615C45.822 10.9981 45.4772 10.7662 45.2134 10.4657C44.9551 10.1673 44.7992 9.81183 44.7455 9.39919C44.6995 8.98309 44.7722 8.52577 44.9635 8.02723C45.1527 7.53429 45.3963 7.14255 45.6942 6.85199C45.9977 6.56359 46.3344 6.38113 46.7044 6.30463C47.08 6.23027 47.4666 6.26941 47.8643 6.42206ZM47.6237 7.0238C47.2708 6.88836 46.9467 6.89569 46.6513 7.04581C46.3636 7.19248 46.1228 7.45994 45.9288 7.84821L48.2226 8.7286C48.3632 8.34555 48.3918 8.00306 48.3085 7.70114C48.2273 7.39363 47.999 7.16785 47.6237 7.0238Z" fill="white"/>
<path d="M52.5233 9.20106C52.8782 9.41425 53.1353 9.67369 53.2946 9.97938C53.4591 10.2882 53.5232 10.6242 53.487 10.9874C53.4591 11.3485 53.3323 11.7169 53.1067 12.0923L52.8611 12.5012L50.0297 10.8003C49.7588 11.2746 49.6624 11.7031 49.7404 12.0859C49.8266 12.4667 50.0755 12.7807 50.487 13.0278C50.7493 13.1854 50.9946 13.3013 51.223 13.3755C51.4597 13.4477 51.7138 13.5023 51.9854 13.5395L51.6286 14.1336C51.3621 14.0995 51.1136 14.0412 50.8831 13.9588C50.6496 13.8815 50.3914 13.7579 50.1085 13.5879C49.7176 13.3531 49.4183 13.0648 49.2107 12.7231C49.0081 12.3845 48.9162 12.0073 48.935 11.5916C48.9619 11.1738 49.1129 10.7361 49.3879 10.2783C49.6598 9.8257 49.9676 9.48218 50.3114 9.24775C50.6604 9.01641 51.0237 8.89518 51.4013 8.88406C51.7841 8.87602 52.1581 8.98169 52.5233 9.20106ZM52.1819 9.7519C51.8579 9.55726 51.5373 9.50821 51.2204 9.60477C50.9116 9.69928 50.628 9.92087 50.3696 10.2696L52.4758 11.5348C52.6807 11.182 52.7683 10.8496 52.7387 10.5378C52.7121 10.2209 52.5265 9.95891 52.1819 9.7519Z" fill="white"/>
<path d="M55.0657 18.5401C54.7734 18.2302 54.5752 17.8934 54.4712 17.5296C54.3713 17.1702 54.3885 16.7951 54.523 16.4042C54.6616 16.0178 54.9381 15.629 55.3527 15.2378C55.7848 14.8302 56.204 14.5707 56.6105 14.4594C57.017 14.3482 57.3988 14.355 57.7559 14.48C58.1172 14.6093 58.446 14.8311 58.7425 15.1454C58.9113 15.3243 59.0543 15.5152 59.1715 15.7181C59.2931 15.9169 59.3771 16.0933 59.4235 16.2475L58.7789 16.5216C58.7193 16.3798 58.6411 16.2226 58.5443 16.05C58.4474 15.8774 58.3414 15.73 58.2261 15.6078C57.5755 14.9183 56.8073 14.9915 55.9213 15.8273C55.498 16.2267 55.2511 16.6164 55.1806 16.9963C55.1187 17.3765 55.2441 17.7325 55.5571 18.0642C55.7382 18.2562 55.9164 18.4057 56.0916 18.5126C56.2708 18.624 56.4465 18.7139 56.6185 18.7826L56.1079 19.2644C55.9356 19.2042 55.7663 19.1165 55.5999 19.0013C55.4332 18.8946 55.2551 18.7409 55.0657 18.5401Z" fill="white"/>
<path d="M60.818 22.8137C60.1527 23.2544 59.5248 23.4256 58.9344 23.3273C58.3472 23.234 57.8631 22.8997 57.4821 22.3244C57.2469 21.9693 57.1165 21.5986 57.0911 21.2125C57.0739 20.828 57.1674 20.453 57.3715 20.0875C57.5806 19.7187 57.9078 19.3869 58.353 19.092C59.0183 18.6514 59.642 18.4793 60.2242 18.576C60.8063 18.6726 61.2879 19.0085 61.6689 19.5838C61.9108 19.9489 62.0403 20.3237 62.0574 20.7082C62.0829 21.0943 61.9919 21.4677 61.7845 21.8281C61.5854 22.1903 61.2632 22.5189 60.818 22.8137ZM58.8052 19.7748C58.33 20.0896 58.0137 20.4323 57.8561 20.8029C57.7069 21.1752 57.7681 21.5665 58.0398 21.9766C58.3082 22.3818 58.6429 22.5884 59.0439 22.5962C59.4499 22.6008 59.8905 22.4457 60.3658 22.1309C60.841 21.8162 61.1507 21.4743 61.2949 21.1053C61.4391 20.7363 61.3754 20.3467 61.1037 19.9365C60.832 19.5263 60.4999 19.3181 60.1071 19.312C59.7144 19.3058 59.2805 19.4601 58.8052 19.7748Z" fill="white"/>
<path d="M63.8733 24.8586C64.0769 25.3716 64.1353 25.8197 64.0484 26.2027C63.9693 26.5891 63.7402 26.8576 63.3609 27.008C63.0877 27.1165 62.8403 27.1275 62.6188 27.0411C62.4029 26.9524 62.2067 26.7914 62.0302 26.5581L61.9967 26.5714C62.0174 26.7697 62.0129 26.9619 61.9834 27.1479C61.9539 27.3339 61.8844 27.5003 61.7748 27.647C61.6674 27.7994 61.4994 27.9209 61.2707 28.0116C60.8971 28.1599 60.52 28.1287 60.1395 27.9182C59.7669 27.7111 59.45 27.2784 59.1889 26.6203C59.0605 26.2969 58.9723 25.993 58.924 25.7088C58.8702 25.4267 58.8536 25.1815 58.8743 24.9733L59.5352 24.711C59.5212 24.9361 59.5288 25.1912 59.5581 25.4765C59.5896 25.7674 59.6662 26.0662 59.7879 26.373C59.9206 26.7076 60.0882 26.9671 60.2904 27.1515C60.5005 27.3393 60.7449 27.3779 61.0238 27.2672C61.5257 27.0681 61.6074 26.5419 61.2689 25.6886L61.0299 25.0862L61.6322 24.8473L61.8247 25.3325C61.9774 25.7173 62.1493 26.0041 62.3404 26.1929C62.5393 26.3851 62.7642 26.4315 63.0152 26.3319C63.2271 26.2478 63.3507 26.0955 63.3858 25.875C63.4232 25.6601 63.3766 25.3881 63.2461 25.059C63.1487 24.8136 63.0373 24.6061 62.9119 24.4364C62.7942 24.27 62.6438 24.0941 62.4604 23.9087L62.9431 23.417C63.3354 23.8036 63.6454 24.2841 63.8733 24.8586Z" fill="white"/>
<path d="M65.4514 32.3718L61.3794 33.2131L61.5215 33.9006L59.2299 34.3741L59.0751 33.6249L60.7145 33.2862L60.0352 29.9986L58.3958 30.3374L58.2428 29.597L60.5344 29.1235L60.6127 29.5025C61.2547 29.7926 61.9518 29.9641 62.7041 30.017C63.4635 30.0745 64.208 30.0309 64.9379 29.8863L65.4514 32.3718ZM64.4718 30.6994C64.0673 30.7585 63.6403 30.7824 63.1908 30.7711C62.7471 30.7586 62.3149 30.7131 61.8943 30.6346C61.475 30.562 61.103 30.4519 60.7785 30.3046L61.2246 32.4639L64.6885 31.7483L64.4718 30.6994Z" fill="white"/>
</svg>
