<svg width="190" height="27" viewBox="0 0 190 27" fill="none" xmlns="http://www.w3.org/2000/svg">
<path d="M18.805 19.595C18.805 20.8317 18.49 21.94 17.86 22.92C17.23 23.8767 16.3783 24.635 15.305 25.195C14.255 25.7317 13.1 26 11.84 26H0.115V1.15H12.085C13.2517 1.15 14.255 1.465 15.095 2.095C15.9583 2.70167 16.6117 3.495 17.055 4.475C17.5217 5.43167 17.755 6.435 17.755 7.485C17.755 8.72167 17.44 9.865 16.81 10.915C16.18 11.965 15.305 12.7467 14.185 13.26C15.6083 13.68 16.7283 14.4617 17.545 15.605C18.385 16.7483 18.805 18.0783 18.805 19.595ZM16.355 19.175C16.355 18.335 16.1683 17.565 15.795 16.865C15.4217 16.1417 14.9083 15.5583 14.255 15.115C13.625 14.6717 12.9017 14.45 12.085 14.45H2.565V23.865H11.84C12.68 23.865 13.4383 23.6433 14.115 23.2C14.7917 22.7567 15.3283 22.185 15.725 21.485C16.145 20.7617 16.355 19.9917 16.355 19.175ZM2.565 3.285V12.455H11.105C11.9217 12.455 12.645 12.245 13.275 11.825C13.905 11.3817 14.4067 10.81 14.78 10.11C15.1533 9.41 15.34 8.66333 15.34 7.87C15.34 7.03 15.165 6.27167 14.815 5.595C14.465 4.895 13.9867 4.335 13.38 3.915C12.7733 3.495 12.085 3.285 11.315 3.285H2.565Z" fill="#00FFC2"/>
<path d="M41.1705 23.83V26H24.4755V1.15H40.8555V3.32H26.9255V12.28H39.0705V14.345H26.9255V23.83H41.1705ZM46.8537 26V1.15H49.3037V23.83H63.6537V26H46.8537ZM74.0651 1.325H76.3751L79.8751 10.145L83.4101 1.325H85.7551L81.4151 11.93L86.1751 23.165L95.1701 1.15H97.8301L87.2951 26H85.1251L79.9101 13.715L74.6601 26H72.5251L62.0251 1.15H64.6501L73.6801 23.165L78.4051 11.93L74.0651 1.325ZM119.072 23.83V26H102.377V1.15H118.757V3.32H104.827V12.28H116.972V14.345H104.827V23.83H119.072ZM142.395 3.32H133.54V26H131.09V3.32H122.235V1.15H142.395V3.32ZM161.692 5.805C161.342 5.40833 160.934 5.05833 160.467 4.755C160 4.42833 159.475 4.14833 158.892 3.915C158.309 3.68167 157.679 3.495 157.002 3.355C156.349 3.215 155.649 3.145 154.902 3.145C152.732 3.145 151.134 3.565 150.107 4.405C149.104 5.22167 148.602 6.34167 148.602 7.765C148.602 8.745 148.835 9.515 149.302 10.075C149.792 10.635 150.55 11.09 151.577 11.44C152.604 11.79 153.91 12.1517 155.497 12.525C157.27 12.8983 158.799 13.3417 160.082 13.855C161.365 14.3683 162.357 15.0683 163.057 15.955C163.757 16.8183 164.107 17.9967 164.107 19.49C164.107 20.6333 163.885 21.625 163.442 22.465C162.999 23.305 162.38 24.005 161.587 24.565C160.794 25.125 159.849 25.545 158.752 25.825C157.655 26.0817 156.454 26.21 155.147 26.21C153.864 26.21 152.627 26.0817 151.437 25.825C150.27 25.545 149.162 25.1483 148.112 24.635C147.062 24.0983 146.082 23.4217 145.172 22.605L146.397 20.61C146.84 21.0767 147.365 21.52 147.972 21.94C148.602 22.3367 149.29 22.6983 150.037 23.025C150.807 23.3517 151.624 23.6083 152.487 23.795C153.374 23.9583 154.284 24.04 155.217 24.04C157.2 24.04 158.74 23.6783 159.837 22.955C160.957 22.2317 161.517 21.1583 161.517 19.735C161.517 18.7083 161.237 17.8917 160.677 17.285C160.117 16.655 159.277 16.1417 158.157 15.745C157.037 15.3483 155.66 14.9633 154.027 14.59C152.3 14.1933 150.842 13.75 149.652 13.26C148.462 12.77 147.564 12.1283 146.957 11.335C146.374 10.5183 146.082 9.445 146.082 8.115C146.082 6.575 146.455 5.28 147.202 4.23C147.972 3.15667 149.022 2.35167 150.352 1.815C151.682 1.255 153.21 0.974999 154.937 0.974999C156.034 0.974999 157.049 1.09167 157.982 1.325C158.939 1.535 159.814 1.85 160.607 2.27C161.424 2.69 162.182 3.215 162.882 3.845L161.692 5.805ZM176.732 1.15H178.797L189.122 26H186.532L183.312 18.23H172.147L168.962 26H166.337L176.732 1.15ZM182.752 16.305L177.747 4.02L172.672 16.305H182.752Z" fill="white"/>
</svg>
