<svg width="20" height="20" viewBox="0 0 20 20" fill="none" xmlns="http://www.w3.org/2000/svg">
<path d="M9.59266 8.66518C8.29635 7.23518 11.5803 5.91483 13.1359 8.16511L13.9136 7.41501C12.963 5.99817 11.1482 5.8676 10.1976 6.08151C7.60501 6.66492 7.90138 8.56075 8.55563 9.33193C8.774 9.58933 9.27634 9.87197 9.7655 9.99868C11.0186 10.3233 12.7038 10.2619 12.7038 11.3322C12.7038 12.4025 10.0248 13.0824 8.55563 11.0822L7.77783 11.8322C7.95067 12.3323 9.50622 13.4026 11.1482 13.4026C13.4815 13.4026 14.0001 12.1525 14.0001 11.4155C14.0001 8.83187 10.7161 9.56881 9.59266 8.66518Z" fill="white" stroke="white" stroke-width="0.2"/>
<path d="M6 12.6503V6.0013H8.89048C11.866 5.92215 11.6109 9.48283 9.74062 9.24537C12.291 9.64114 11.6109 12.6503 8.89048 12.6503H6Z" stroke="#1BD6FF" stroke-width="0.5"/>
<path d="M7.01758 8.93033V6.79315H8.71786C10.3331 6.79315 10.5882 8.93033 8.71786 8.93033H7.01758Z" stroke="#1BD6FF" stroke-width="0.5"/>
<path d="M7.01758 11.8587V9.7215H8.88789C10.5882 9.7215 10.6732 11.8587 8.88789 11.8587H7.01758Z" stroke="#1BD6FF" stroke-width="0.5"/>
<path d="M18.0048 8.72762C18.0193 8.84505 18.0084 8.95306 17.9719 9.05163C17.9352 9.14854 17.8697 9.22972 17.7753 9.29515C17.6808 9.35893 17.555 9.40056 17.3978 9.42003C17.2341 9.44033 17.0976 9.42954 16.9882 9.38767C16.8789 9.3458 16.7945 9.28152 16.7351 9.19484C16.6754 9.10651 16.6382 9.0028 16.6235 8.88371C16.6151 8.8159 16.6144 8.74964 16.6215 8.68494C16.627 8.62045 16.6371 8.56713 16.6521 8.52497L16.8415 8.56951C16.8315 8.61105 16.8232 8.6591 16.8165 8.71367C16.8099 8.76824 16.8094 8.81868 16.8151 8.86499C16.8475 9.12633 17.0316 9.23619 17.3674 9.19457C17.5278 9.17468 17.6471 9.12798 17.7254 9.05447C17.8017 8.97951 17.8321 8.87918 17.8165 8.75347C17.8075 8.6807 17.7922 8.61794 17.7705 8.5652C17.7487 8.51081 17.7241 8.46179 17.6969 8.41814L17.8904 8.39416C17.9191 8.43595 17.9426 8.48341 17.9609 8.53656C17.9807 8.58785 17.9953 8.65154 18.0048 8.72762Z" fill="white"/>
<path d="M16.6644 6.32553C16.8708 6.24455 17.0513 6.23459 17.2059 6.29565C17.36 6.35515 17.472 6.47411 17.542 6.65253C17.5853 6.76269 17.5991 6.87095 17.5836 6.97731C17.5658 7.08274 17.5186 7.17915 17.4419 7.26654C17.3637 7.35455 17.2555 7.42564 17.1174 7.47983C16.9111 7.56081 16.7316 7.57124 16.5791 7.51113C16.4266 7.45101 16.3154 7.33175 16.2454 7.15333C16.2009 7.04007 16.1876 6.93073 16.2053 6.82531C16.2208 6.71894 16.2672 6.62284 16.3446 6.53699C16.4197 6.45021 16.5263 6.37972 16.6644 6.32553ZM17.0343 7.26805C17.1817 7.21021 17.2876 7.13554 17.3519 7.04404C17.4141 6.9516 17.4202 6.84177 17.3703 6.71455C17.321 6.58888 17.2421 6.51331 17.1336 6.48784C17.0236 6.46298 16.8949 6.47947 16.7475 6.53731C16.6001 6.59515 16.4961 6.66998 16.4355 6.76182C16.3748 6.85365 16.3695 6.96318 16.4194 7.0904C16.4693 7.21762 16.5474 7.2935 16.6538 7.31802C16.7601 7.34255 16.8869 7.32589 17.0343 7.26805Z" fill="white"/>
<path d="M15.5572 5.71844C15.4675 5.59412 15.4213 5.47742 15.4186 5.36835C15.4136 5.25891 15.457 5.17102 15.5489 5.10469C15.6152 5.05689 15.681 5.03709 15.7466 5.04529C15.8107 5.05446 15.8745 5.08446 15.9379 5.1353L15.9461 5.12944C15.927 5.07742 15.9151 5.02536 15.9104 4.97327C15.9057 4.92117 15.9131 4.87163 15.9326 4.82465C15.9512 4.77631 15.9881 4.73215 16.0436 4.69215C16.1341 4.62679 16.2378 4.60952 16.3545 4.64032C16.469 4.67075 16.5838 4.7657 16.6989 4.92516C16.7555 5.00354 16.7999 5.07936 16.8323 5.15263C16.866 5.22493 16.8871 5.28982 16.8957 5.34732L16.7356 5.46292C16.724 5.40136 16.7046 5.33316 16.6773 5.25832C16.649 5.18212 16.6081 5.10686 16.5544 5.03254C16.4959 4.95146 16.4331 4.89297 16.3661 4.85707C16.2967 4.8208 16.2283 4.82705 16.1607 4.87582C16.0391 4.96362 16.0529 5.11089 16.2022 5.31765L16.3075 5.4636L16.1616 5.56895L16.0767 5.45138C16.0094 5.35814 15.9436 5.29259 15.8793 5.25475C15.8126 5.21652 15.7489 5.21936 15.6881 5.26326C15.6367 5.30032 15.6138 5.34975 15.6193 5.41153C15.6239 5.47195 15.655 5.54203 15.7125 5.62176C15.7554 5.68122 15.7996 5.72954 15.8449 5.7667C15.8879 5.8035 15.9404 5.84063 16.0024 5.8781L15.9059 6.04336C15.7739 5.96594 15.6577 5.85763 15.5572 5.71844Z" fill="white"/>
<path d="M13.9465 3.91086L14.689 3.0261L14.5396 2.90075L14.9574 2.40283L15.1202 2.53942L14.8213 2.89563L15.5356 3.49504L15.8345 3.13884L15.9954 3.27383L15.5776 3.77175L15.4952 3.70265C15.3053 3.75001 15.1239 3.83272 14.9509 3.95078C14.7755 4.06904 14.6207 4.2068 14.4866 4.36404L13.9465 3.91086ZM14.4481 4.10655C14.5261 4.02402 14.615 3.94526 14.7149 3.87027C14.8137 3.79656 14.9157 3.73204 15.0209 3.6767C15.1248 3.62029 15.2248 3.58019 15.3209 3.55641L14.8518 3.16269L14.2202 3.91532L14.4481 4.10655Z" fill="white"/>
<path d="M12.8452 3.21855C12.698 3.14772 12.6047 3.06303 12.5652 2.96448C12.5257 2.86593 12.5399 2.74608 12.6079 2.60491L13.0036 1.78268L13.1477 1.85206L13.1036 2.0417L13.1127 2.04604C13.197 2.00525 13.2761 1.98319 13.3498 1.97984C13.4221 1.97577 13.5093 1.99831 13.6114 2.04745C13.721 2.10022 13.7981 2.17248 13.8428 2.26424C13.8867 2.3575 13.879 2.46571 13.8197 2.58886C13.7619 2.709 13.6701 2.77859 13.5444 2.79763C13.418 2.81818 13.255 2.78411 13.0554 2.69543L12.8471 2.60353L12.8124 2.67562C12.764 2.77624 12.7522 2.85655 12.7769 2.91656C12.8017 2.97657 12.8539 3.02572 12.9335 3.06403C12.9965 3.09439 13.0613 3.11354 13.1278 3.12148C13.1935 3.13092 13.2569 3.13556 13.3181 3.13538L13.3073 3.31333C13.241 3.31657 13.1671 3.3106 13.0857 3.29543C13.0035 3.28176 12.9233 3.25613 12.8452 3.21855ZM13.0967 2.54609C13.2498 2.61237 13.3657 2.63857 13.4445 2.62471C13.5218 2.61012 13.5789 2.56454 13.6158 2.48794C13.6483 2.42036 13.6519 2.36105 13.6265 2.30999C13.5996 2.25822 13.5539 2.21679 13.4893 2.18571C13.3872 2.13656 13.289 2.12351 13.1947 2.14655C13.0996 2.17109 13.0239 2.24194 12.9675 2.35907L12.9155 2.4672L13.0967 2.54609Z" fill="white"/>
<path d="M11.169 2.59137C11.0562 2.56896 10.9646 2.52528 10.8942 2.46032C10.8222 2.39504 10.7739 2.31323 10.7493 2.21487C10.7227 2.11783 10.7212 2.00964 10.7449 1.89031L10.7708 1.76035L11.6707 1.93913C11.697 1.78972 11.6819 1.66864 11.6256 1.57588C11.5673 1.48444 11.4728 1.42572 11.342 1.39974C11.2586 1.38318 11.1836 1.37592 11.1169 1.37797C11.0483 1.38132 10.9767 1.39089 10.9022 1.40668L10.9397 1.21787C11.0126 1.20176 11.083 1.19366 11.151 1.19357C11.2193 1.19185 11.2984 1.19992 11.3883 1.21778C11.5126 1.24247 11.6179 1.28973 11.7043 1.35956C11.789 1.42908 11.8484 1.51905 11.8826 1.62949C11.9147 1.74123 11.9164 1.86985 11.8875 2.01534C11.8589 2.15919 11.8107 2.27791 11.7428 2.37147C11.6733 2.46472 11.5897 2.53053 11.492 2.56889C11.3927 2.60694 11.285 2.61443 11.169 2.59137ZM11.2065 2.41531C11.3095 2.43577 11.3979 2.41849 11.4717 2.36349C11.5435 2.30979 11.5968 2.22523 11.6317 2.1098L10.9623 1.97681C10.9418 2.0883 10.9501 2.1834 10.9871 2.26213C11.0238 2.34249 11.097 2.39355 11.2065 2.41531Z" fill="white"/>
<path d="M8.44739 2.42566L8.37503 1.08761L8.57224 1.07695L8.61841 1.9307C8.6203 1.96565 8.62145 2.00231 8.62185 2.04068C8.62059 2.07913 8.61929 2.11676 8.61794 2.15355L8.62543 2.15315L9.00411 1.0536L9.18884 1.04361L9.6714 2.09659L9.67889 2.09618C9.66985 2.02156 9.66321 1.94514 9.65898 1.86692L9.61322 1.02066L9.81044 1.01L9.88279 2.34804L9.59072 2.36384L9.11065 1.31072L8.73946 2.40987L8.44739 2.42566Z" fill="white"/>
<path d="M5.74033 1.91602L5.94258 1.82327L6.42508 2.87541L6.78412 2.71076C6.68641 2.4457 6.61885 2.2264 6.58144 2.05287C6.54472 1.88084 6.53882 1.74603 6.56374 1.64843C6.58866 1.55083 6.64505 1.48188 6.73292 1.44158C6.75261 1.43255 6.773 1.42503 6.79408 1.41903C6.81296 1.41221 6.82984 1.40905 6.84474 1.40955L6.91352 1.55953C6.90304 1.56067 6.89215 1.56292 6.88085 1.56626C6.86955 1.56961 6.8586 1.57372 6.848 1.57858C6.76619 1.6161 6.74099 1.73308 6.77241 1.92953C6.80231 2.12668 6.88914 2.41599 7.0329 2.79745L6.2989 3.13405L5.74033 1.91602Z" fill="white"/>
<path d="M5.77497 3.35414L5.59224 3.50189L4.88731 3.09131C4.82595 3.05519 4.76811 3.01944 4.71378 2.98406C4.66051 2.94998 4.61269 2.9147 4.57033 2.87822L4.56255 2.88451C4.58098 2.92319 4.60272 2.97527 4.62779 3.04073C4.65391 3.10749 4.67938 3.17477 4.7042 3.24258L4.97015 4.0049L4.78547 4.15423L4.27569 2.60527C4.23233 2.47743 4.21624 2.36078 4.2274 2.2553C4.23727 2.15087 4.29275 2.05779 4.39384 1.97605C4.42494 1.9509 4.45373 1.93084 4.4802 1.91586C4.50563 1.89959 4.52833 1.88659 4.54833 1.87685L4.65836 2.01294C4.64201 2.02187 4.62306 2.0329 4.60153 2.04603C4.57869 2.0602 4.55626 2.0762 4.53423 2.09401C4.47461 2.14222 4.44028 2.19784 4.43124 2.26088C4.4209 2.32496 4.4279 2.39325 4.45222 2.46575L4.50939 2.64779L5.77497 3.35414Z" fill="white"/>
<path d="M3.72757 4.50407C3.60457 4.41251 3.49182 4.43559 3.38932 4.5733C3.33956 4.64015 3.30431 4.70845 3.28357 4.77819C3.26416 4.84893 3.25044 4.92598 3.24241 5.00934L3.70367 5.35266L3.57231 5.52914L2.49738 4.72906L2.62874 4.55258L3.10805 4.90933C3.11405 4.82031 3.12759 4.73793 3.14864 4.66218C3.17004 4.58877 3.21109 4.51129 3.27179 4.42973C3.35339 4.3201 3.44583 4.25593 3.54909 4.23722C3.65136 4.21984 3.75063 4.24698 3.84689 4.31863L4.24999 4.61866L4.11863 4.79514L3.72757 4.50407Z" fill="white"/>
<path d="M2.56222 7.73463L1.29405 7.30181L1.88109 5.58173L3.14927 6.01454L3.07821 6.22275L1.98512 5.84969L1.79859 6.39624L2.89168 6.7693L2.82062 6.97751L1.72753 6.60445L1.54019 7.15336L2.63328 7.52642L2.56222 7.73463Z" fill="white"/>
<path d="M2.38432 9.15633C2.38255 9.27131 2.35603 9.36925 2.30478 9.45013C2.2535 9.53269 2.18169 9.59492 2.08937 9.63683C1.99868 9.68044 1.89252 9.7013 1.77086 9.69942L1.63838 9.69737L1.65255 8.77998C1.50085 8.78098 1.38443 8.81752 1.30331 8.88961C1.22383 8.96339 1.18306 9.06694 1.181 9.20025C1.17969 9.28524 1.18603 9.36035 1.20002 9.42557C1.21566 9.49249 1.23794 9.56118 1.26685 9.63163L1.07437 9.62866C1.04543 9.55987 1.02481 9.49204 1.01251 9.42518C0.998539 9.35829 0.992262 9.27902 0.993677 9.18736C0.995633 9.06071 1.0232 8.94862 1.07638 8.8511C1.12953 8.75524 1.20736 8.6806 1.30986 8.62718C1.41401 8.57544 1.54024 8.55072 1.68855 8.55301C1.8352 8.55528 1.96065 8.58138 2.06489 8.63133C2.16911 8.68295 2.24886 8.75335 2.30416 8.84255C2.35943 8.93342 2.38615 9.03801 2.38432 9.15633ZM2.20438 9.15105C2.206 9.04606 2.17313 8.96221 2.10575 8.8995C2.04002 8.83847 1.94725 8.8012 1.82745 8.78769L1.81691 9.4701C1.93026 9.47019 2.02232 9.44494 2.09311 9.39436C2.16557 9.34381 2.20266 9.2627 2.20438 9.15105Z" fill="white"/>
<path d="M2.51574 10.9618C2.54286 11.0736 2.54175 11.175 2.51242 11.2662C2.48348 11.359 2.42957 11.4372 2.35071 11.5009C2.27386 11.5659 2.17632 11.6127 2.05808 11.6414L1.92932 11.6726L1.71297 10.781C1.56636 10.82 1.46283 10.8846 1.40238 10.9747C1.34394 11.0661 1.33045 11.1765 1.36189 11.3061C1.38193 11.3887 1.4069 11.4598 1.43681 11.5195C1.46872 11.5803 1.50751 11.6412 1.55317 11.7022L1.3661 11.7476C1.32083 11.6882 1.28386 11.6277 1.25518 11.5661C1.22489 11.5048 1.19893 11.4297 1.17732 11.3406C1.14745 11.2175 1.14602 11.1021 1.17305 10.9943C1.20046 10.8882 1.25708 10.7964 1.34291 10.719C1.43076 10.6428 1.54675 10.5872 1.6909 10.5523C1.83343 10.5177 1.96142 10.5115 2.07485 10.5337C2.18868 10.5575 2.28355 10.6057 2.35945 10.6782C2.43574 10.7523 2.48783 10.8468 2.51574 10.9618ZM2.34022 11.0018C2.31546 10.8998 2.26261 10.8269 2.18166 10.783C2.10273 10.7405 2.00358 10.7276 1.88421 10.7446L2.04515 11.4079C2.15489 11.3795 2.23769 11.332 2.29353 11.2653C2.35099 11.1982 2.36656 11.1103 2.34022 11.0018Z" fill="white"/>
<path d="M2.39294 14.2338C2.32474 14.1371 2.28349 14.0367 2.26919 13.9325C2.25586 13.8298 2.27536 13.7273 2.3277 13.6251C2.381 13.5243 2.47235 13.4282 2.60174 13.337C2.73657 13.2419 2.86206 13.187 2.97821 13.1724C3.09435 13.1578 3.19907 13.1747 3.29236 13.2231C3.38661 13.2729 3.46832 13.3468 3.53748 13.4449C3.57687 13.5007 3.60868 13.5588 3.63293 13.6192C3.65854 13.6787 3.67469 13.7305 3.68141 13.7747L3.49336 13.8248C3.48257 13.7834 3.46725 13.7371 3.4474 13.6859C3.42756 13.6346 3.40419 13.5899 3.37729 13.5517C3.22551 13.3366 3.01139 13.3265 2.7349 13.5215C2.60279 13.6146 2.51957 13.7121 2.48525 13.8138C2.45326 13.9159 2.47376 14.0187 2.54677 14.1222C2.58903 14.1821 2.63215 14.2303 2.6761 14.2666C2.72102 14.3042 2.76578 14.3359 2.81039 14.3615L2.65103 14.4739C2.60603 14.4506 2.56291 14.4198 2.52168 14.3816C2.48004 14.3457 2.43713 14.2964 2.39294 14.2338Z" fill="white"/>
<path d="M4.69039 15.7137C4.54605 15.882 4.39127 15.9754 4.22603 15.9939C4.06206 16.0135 3.90734 15.9609 3.76187 15.8362C3.67206 15.7591 3.6091 15.67 3.57299 15.5687C3.53923 15.4673 3.53575 15.36 3.56255 15.2468C3.59044 15.1324 3.65268 15.0189 3.74926 14.9063C3.8936 14.7381 4.04721 14.6448 4.21009 14.6264C4.37298 14.6081 4.52716 14.6613 4.67263 14.7861C4.76497 14.8653 4.82802 14.9556 4.86178 15.057C4.89789 15.1583 4.90191 15.265 4.87384 15.377C4.84812 15.4889 4.78697 15.6011 4.69039 15.7137ZM3.92193 15.0545C3.81884 15.1746 3.7603 15.2902 3.74633 15.4012C3.73472 15.512 3.78077 15.6119 3.8845 15.7009C3.98696 15.7888 4.09206 15.8186 4.19982 15.7902C4.30866 15.7606 4.41463 15.6858 4.51772 15.5656C4.62082 15.4454 4.67763 15.3306 4.68816 15.221C4.6987 15.1115 4.6521 15.0122 4.54838 14.9232C4.44465 14.8342 4.34008 14.8038 4.23468 14.832C4.12928 14.8601 4.02503 14.9343 3.92193 15.0545Z" fill="white"/>
<path d="M5.98547 15.7568C6.12313 15.8244 6.21879 15.9056 6.27244 16.0006C6.32832 16.0949 6.33131 16.1928 6.28141 16.2946C6.24544 16.3679 6.19662 16.4164 6.13493 16.44C6.07398 16.462 6.00357 16.4656 5.9237 16.4505L5.9193 16.4595C5.96058 16.4964 5.99555 16.5368 6.02421 16.5806C6.05287 16.6243 6.06963 16.6715 6.07449 16.7222C6.08084 16.7736 6.06898 16.8299 6.03889 16.8913C5.98971 16.9915 5.90635 17.0555 5.78879 17.0833C5.67347 17.1102 5.52752 17.0804 5.35094 16.9938C5.26415 16.9513 5.18926 16.9052 5.12627 16.8558C5.06255 16.8078 5.01336 16.7605 4.97872 16.7138L5.06568 16.5365C5.10482 16.5854 5.15403 16.6364 5.21333 16.6896C5.27411 16.7436 5.34566 16.7907 5.42796 16.8311C5.51774 16.8751 5.60065 16.8972 5.67668 16.8974C5.75494 16.8968 5.81242 16.8591 5.84911 16.7843C5.91516 16.6496 5.83372 16.5261 5.60477 16.4138L5.44316 16.3346L5.52242 16.173L5.65261 16.2368C5.75586 16.2874 5.84476 16.3143 5.91933 16.3175C5.99612 16.3199 6.05103 16.2874 6.08405 16.2201C6.11194 16.1632 6.10892 16.1088 6.07498 16.0569C6.04253 16.0057 5.98217 15.9585 5.89388 15.9152C5.82804 15.8829 5.76638 15.861 5.7089 15.8495C5.65365 15.8373 5.58985 15.8292 5.51752 15.8253L5.525 15.634C5.67785 15.6403 5.83134 15.6813 5.98547 15.7568Z" fill="white"/>
<path d="M8.20719 16.5821L7.96917 17.7123L8.15998 17.7525L8.02603 18.3886L7.81809 18.3448L7.91392 17.8897L7.00143 17.6976L6.9056 18.1526L6.70011 18.1093L6.83406 17.4733L6.93926 17.4954C7.08442 17.3642 7.2055 17.2057 7.30251 17.0201C7.4015 16.8331 7.4731 16.6387 7.51732 16.4368L8.20719 16.5821ZM7.67259 16.6458C7.64271 16.7553 7.60137 16.8667 7.54857 16.9799C7.49612 17.0915 7.43654 17.1965 7.36983 17.2949C7.30476 17.3936 7.23544 17.476 7.16187 17.5423L7.76123 17.6685L7.9637 16.7071L7.67259 16.6458Z" fill="white"/>
<path d="M9.55782 16.6819C9.72098 16.6744 9.84334 16.7046 9.92491 16.7725C10.0065 16.8405 10.0509 16.9527 10.0581 17.1092L10.1004 18.0207L9.94055 18.0281L9.8893 17.8403L9.87931 17.8408C9.82443 17.9167 9.76534 17.9737 9.70203 18.0117C9.64039 18.0496 9.55296 18.0711 9.43975 18.0764C9.31821 18.082 9.21602 18.055 9.13317 17.9955C9.05025 17.9343 9.00562 17.8354 8.9993 17.6989C8.99313 17.5657 9.04082 17.4609 9.14239 17.3844C9.24389 17.3063 9.40353 17.2588 9.62132 17.2421L9.84823 17.2241L9.84453 17.1441C9.83936 17.0326 9.81163 16.9563 9.76134 16.9152C9.71105 16.8742 9.64179 16.8557 9.55355 16.8598C9.48363 16.863 9.41753 16.877 9.35527 16.9015C9.29293 16.9244 9.23491 16.9505 9.1812 16.9797L9.10613 16.818C9.16294 16.7836 9.2308 16.7538 9.30971 16.7285C9.38854 16.7014 9.47125 16.6859 9.55782 16.6819ZM9.65585 17.3931C9.48967 17.4075 9.3752 17.4395 9.31243 17.4891C9.25132 17.5387 9.22274 17.6059 9.22667 17.6908C9.23014 17.7657 9.25516 17.8196 9.30174 17.8525C9.34997 17.8853 9.40989 17.9001 9.48148 17.8968C9.59469 17.8915 9.68733 17.8563 9.75939 17.7913C9.83138 17.7245 9.86436 17.6262 9.85835 17.4964L9.85279 17.3765L9.65585 17.3931Z" fill="white"/>
<path d="M11.3081 16.4529C11.4181 16.4195 11.5195 16.4149 11.6122 16.439C11.7064 16.4626 11.7876 16.5119 11.8557 16.5871C11.925 16.6601 11.9772 16.7548 12.0126 16.8712L12.0511 16.998L11.1732 17.2647C11.2205 17.4088 11.2909 17.5085 11.3843 17.5638C11.4788 17.6169 11.5899 17.6241 11.7174 17.5854C11.7988 17.5606 11.8684 17.5317 11.9262 17.4984C11.9851 17.4631 12.0437 17.4209 12.102 17.3719L12.1579 17.556C12.1013 17.6046 12.043 17.645 11.9831 17.6771C11.9237 17.7108 11.8501 17.741 11.7624 17.7677C11.6412 17.8045 11.526 17.8125 11.4169 17.7916C11.3094 17.7703 11.2146 17.719 11.1324 17.6377C11.0513 17.5543 10.9892 17.4417 10.9461 17.2997C10.9035 17.1594 10.89 17.032 10.9058 16.9175C10.9231 16.8025 10.9658 16.705 11.0338 16.6251C11.1035 16.5447 11.1949 16.4873 11.3081 16.4529ZM11.358 16.6259C11.2576 16.6564 11.1878 16.7133 11.1486 16.7966C11.1106 16.8779 11.1034 16.9776 11.1272 17.0958L11.7802 16.8974C11.7457 16.7895 11.6935 16.7095 11.6237 16.6575C11.5534 16.604 11.4649 16.5934 11.358 16.6259Z" fill="white"/>
<path d="M13.7873 15.32L14.4858 16.4635L14.3172 16.5665L13.8716 15.8368C13.8533 15.807 13.8349 15.7752 13.8164 15.7416C13.7992 15.7072 13.7825 15.6735 13.7662 15.6404L13.7598 15.6443L13.9481 16.7919L13.7902 16.8884L12.8659 16.1903L12.8595 16.1942C12.9029 16.2556 12.9449 16.3198 12.9858 16.3866L13.4275 17.1099L13.259 17.2128L12.5605 16.0693L12.8101 15.9168L13.7323 16.6161L13.5377 15.4724L13.7873 15.32Z" fill="white"/>
<path d="M16.4131 14.5099L16.2783 14.6869L15.3574 13.9857L15.1181 14.3C15.329 14.4878 15.4919 14.6495 15.6065 14.785C15.7199 14.9195 15.7886 15.0357 15.8125 15.1336C15.8365 15.2314 15.8192 15.3188 15.7606 15.3957C15.7475 15.4129 15.733 15.4292 15.7172 15.4444C15.7038 15.4593 15.6904 15.47 15.677 15.4766L15.5457 15.3766C15.5544 15.3707 15.563 15.3636 15.5714 15.3553C15.5798 15.347 15.5875 15.3383 15.5946 15.329C15.6491 15.2574 15.6163 15.1423 15.4961 14.9837C15.3769 14.8239 15.1641 14.6095 14.8578 14.3406L15.347 13.6981L16.4131 14.5099Z" fill="white"/>
<path d="M15.7204 13.2513L15.812 13.0349L16.6272 13.0648C16.6983 13.0678 16.7662 13.072 16.8308 13.0776C16.8938 13.0826 16.9526 13.0912 17.0072 13.1034L17.0111 13.0942C16.9766 13.0688 16.9329 13.0331 16.8799 12.9871C16.8254 12.9406 16.7713 12.8932 16.7174 12.8451L16.1236 12.2981L16.2161 12.0793L17.3957 13.2053C17.4942 13.2976 17.5633 13.3929 17.6032 13.4912C17.6437 13.588 17.6386 13.6962 17.588 13.8159C17.5724 13.8528 17.5565 13.884 17.5402 13.9097C17.5254 13.9361 17.5115 13.9582 17.4985 13.9762L17.3373 13.9081C17.3475 13.8925 17.359 13.8738 17.3718 13.8521C17.3853 13.8288 17.3975 13.8042 17.4086 13.7781C17.4384 13.7075 17.4425 13.6422 17.4208 13.5824C17.3997 13.521 17.3613 13.464 17.3057 13.4115L17.1695 13.2779L15.7204 13.2513Z" fill="white"/>
<path d="M16.9929 11.2529C17.1446 11.2753 17.2329 11.2016 17.258 11.0317C17.2701 10.9493 17.2688 10.8724 17.254 10.8012C17.2376 10.7297 17.2132 10.6553 17.1808 10.5781L16.6119 10.4943L16.644 10.2766L17.9697 10.472L17.9376 10.6897L17.3465 10.6026C17.3834 10.6838 17.4105 10.7628 17.4278 10.8394C17.4438 10.9142 17.4443 11.0019 17.4295 11.1025C17.4096 11.2377 17.3585 11.338 17.2765 11.4034C17.1946 11.4671 17.0944 11.4903 16.9756 11.4728L16.4785 11.3995L16.5106 11.1818L16.9929 11.2529Z" fill="white"/>
</svg>
